<svg xmlns="http://www.w3.org/2000/svg">


	<symbol id="card-icon" viewBox="0 0 24 24" fill="none">

		<path
			d="M8 22C8.55228 22 9 21.5523 9 21C9 20.4477 8.55228 20 8 20C7.44772 20 7 20.4477 7 21C7 21.5523 7.44772 22 8 22Z"
			stroke="currentColor" stroke-width="2" stroke-linecap="round" stroke-linejoin="round" />
		<path
			d="M19 22C19.5523 22 20 21.5523 20 21C20 20.4477 19.5523 20 19 20C18.4477 20 18 20.4477 18 21C18 21.5523 18.4477 22 19 22Z"
			stroke="currentColor" stroke-width="2" stroke-linecap="round" stroke-linejoin="round" />
		<path
			d="M2.04999 2.05005H4.04999L6.70999 14.47C6.80757 14.9249 7.06066 15.3315 7.4257 15.6199C7.79074 15.9083 8.24489 16.0604 8.70999 16.05H18.49C18.9452 16.0493 19.3865 15.8933 19.741 15.6079C20.0956 15.3224 20.3421 14.9246 20.44 14.48L22.09 7.05005H5.11999"
			stroke="currentColor" stroke-width="2" stroke-linecap="round" stroke-linejoin="round" />
	</symbol>
	<symbol id="home-icon" viewBox="0 0 24 24" fill="none">

		<path
			d="M15 21V16C15 15.7348 14.8946 15.4804 14.7071 15.2929C14.5196 15.1054 14.2652 15 14 15H10C9.73478 15 9.48043 15.1054 9.29289 15.2929C9.10536 15.4804 9 15.7348 9 16V21"
			stroke="currentColor" stroke-width="2" stroke-linecap="round" stroke-linejoin="round" />
		<path
			d="M17.774 10.31C17.5655 10.1104 17.2881 9.99904 16.9995 9.99904C16.7109 9.99904 16.4335 10.1104 16.225 10.31C15.76 10.7535 15.1421 11.001 14.4995 11.001C13.8569 11.001 13.239 10.7535 12.774 10.31C12.5656 10.1107 12.2883 9.99952 12 9.99952C11.7117 9.99952 11.4344 10.1107 11.226 10.31C10.761 10.7538 10.1428 11.0014 9.5 11.0014C8.85717 11.0014 8.23904 10.7538 7.774 10.31C7.56553 10.1104 7.28808 9.99904 6.9995 9.99904C6.71091 9.99904 6.43346 10.1104 6.225 10.31C5.77584 10.7386 5.18327 10.9848 4.56262 11.0005C3.94198 11.0163 3.33766 10.8006 2.8673 10.3954C2.39694 9.99015 2.09419 9.42439 2.01798 8.80824C1.94177 8.19209 2.09755 7.56962 2.455 7.062L5.344 2.878C5.5273 2.60751 5.77409 2.38605 6.06278 2.233C6.35146 2.07994 6.67325 1.99994 7 2H17C17.3258 1.99988 17.6467 2.07934 17.9348 2.23149C18.2229 2.38364 18.4694 2.60386 18.653 2.873L21.548 7.065C21.9055 7.57303 22.0611 8.19597 21.9844 8.81244C21.9077 9.42891 21.6043 9.99475 21.1332 10.3997C20.6621 10.8046 20.0571 11.0197 19.4361 11.0029C18.8151 10.9861 18.2226 10.7388 17.774 10.309"
			stroke="currentColor" stroke-width="2" stroke-linecap="round" stroke-linejoin="round" />
		<path
			d="M4 10.95V19C4 19.5304 4.21071 20.0391 4.58579 20.4142C4.96086 20.7892 5.46957 21 6 21H18C18.5304 21 19.0391 20.7892 19.4142 20.4142C19.7893 20.0391 20 19.5304 20 19V10.95"
			stroke="currentColor" stroke-width="2" stroke-linecap="round" stroke-linejoin="round" />
	</symbol>
	<symbol id="swiper-arrow" viewBox="0 0 28 28" fill="none">

		<path
			d="M13.8229 0.199707C14.1982 0.199793 14.5591 0.34592 14.8258 0.606934C15.0927 0.868161 15.2438 1.22391 15.2438 1.59521C15.2436 1.96634 15.0925 2.32141 14.8258 2.58252L3.63145 13.5356L14.8258 24.4897V24.4907C14.9578 24.62 15.0627 24.7735 15.1344 24.9429C15.2061 25.1124 15.2437 25.2943 15.2438 25.478C15.2438 25.6618 15.2061 25.8436 15.1344 26.0132C15.0626 26.1827 14.9579 26.337 14.8258 26.4663C14.6937 26.5955 14.5368 26.6974 14.3648 26.7671C14.1929 26.8368 14.0087 26.8725 13.8229 26.8726C13.6369 26.8726 13.4519 26.8368 13.2799 26.7671C13.1079 26.6973 12.951 26.5955 12.8189 26.4663L0.617775 14.5239C0.485734 14.3948 0.380939 14.2411 0.309181 14.0718C0.237392 13.9023 0.199838 13.7204 0.199806 13.5366C0.199806 13.3529 0.237416 13.171 0.309181 13.0015C0.380987 12.8319 0.485563 12.6776 0.617775 12.5483L12.8189 0.606934C13.0857 0.345843 13.4474 0.199707 13.8229 0.199707ZM26.024 0.199707C26.3994 0.19973 26.7602 0.3459 27.027 0.606934C27.2939 0.868167 27.4449 1.22388 27.4449 1.59521C27.4448 1.96638 27.2938 2.3214 27.027 2.58252L15.8326 13.5356L27.027 24.4897V24.4907C27.159 24.62 27.2638 24.7735 27.3355 24.9429C27.4073 25.1124 27.4449 25.2943 27.4449 25.478C27.4449 25.6618 27.4073 25.8436 27.3355 26.0132C27.2638 26.1827 27.1591 26.337 27.027 26.4663C26.8949 26.5955 26.738 26.6974 26.566 26.7671C26.394 26.8368 26.2099 26.8725 26.024 26.8726C25.8381 26.8726 25.654 26.8368 25.482 26.7671C25.3101 26.6974 25.1531 26.5954 25.0211 26.4663L12.8189 14.5239V14.5229C12.6872 14.3939 12.582 14.2409 12.5104 14.0718C12.4386 13.9023 12.401 13.7204 12.401 13.5366C12.401 13.3529 12.4386 13.1709 12.5104 13.0015C12.5821 12.832 12.6868 12.6776 12.8189 12.5483L25.0211 0.606934C25.2879 0.345935 25.6486 0.199707 26.024 0.199707Z"
			fill="currentColor" stroke="currentColor" stroke-width="0.4" />
	</symbol>

	<symbol id="phone-icon" viewBox="0 0 19 19" fill="none">

		<path
			d="M17.8463 12.6054L13.4306 10.6264L13.4194 10.6207C13.19 10.5225 12.9397 10.4831 12.6912 10.506C12.4427 10.5289 12.2038 10.6135 11.9963 10.752C11.9718 10.7681 11.9484 10.7857 11.9259 10.8045L9.64407 12.7498C8.19845 12.0476 6.70595 10.5664 6.00376 9.1395L7.95188 6.82294C7.97063 6.7995 7.98845 6.77606 8.00532 6.75075C8.14072 6.54384 8.22287 6.30667 8.24446 6.06035C8.26605 5.81402 8.22641 5.56618 8.12907 5.33887V5.32762L6.14438 0.90356C6.0157 0.606621 5.79444 0.359262 5.51362 0.198409C5.2328 0.037556 4.9075 -0.0281639 4.58626 0.0110603C3.31592 0.178223 2.14986 0.802093 1.30588 1.76615C0.461903 2.73021 -0.00228837 3.96852 8.4831e-06 5.24981C8.4831e-06 12.6936 6.05626 18.7498 13.5 18.7498C14.7813 18.7521 16.0196 18.2879 16.9837 17.4439C17.9477 16.6 18.5716 15.4339 18.7388 14.1636C18.778 13.8423 18.7123 13.517 18.5514 13.2362C18.3906 12.9554 18.1432 12.7341 17.8463 12.6054ZM13.5 17.2498C10.3185 17.2463 7.26825 15.9809 5.01856 13.7313C2.76888 11.4816 1.50348 8.43134 1.50001 5.24981C1.49648 4.33433 1.82631 3.44887 2.42789 2.75879C3.02947 2.0687 3.86167 1.62119 4.76907 1.49981C4.7687 1.50355 4.7687 1.50732 4.76907 1.51106L6.73782 5.91731L4.80001 8.23669C4.78034 8.25932 4.76247 8.28345 4.74657 8.30887C4.60549 8.52536 4.52273 8.77462 4.5063 9.03249C4.48988 9.29037 4.54035 9.54811 4.65282 9.78075C5.5022 11.5179 7.25251 13.2551 9.00845 14.1036C9.24279 14.215 9.50203 14.2637 9.76083 14.245C10.0196 14.2262 10.2692 14.1407 10.485 13.9967C10.5093 13.9805 10.5325 13.9626 10.5544 13.9432L12.8334 11.9998L17.2397 13.9742C17.2397 13.9742 17.2472 13.9742 17.25 13.9742C17.1299 14.8827 16.683 15.7164 15.9928 16.3192C15.3026 16.9221 14.4164 17.2529 13.5 17.2498ZM15.75 6.74981V1.49981C15.75 1.3009 15.829 1.11013 15.9697 0.96948C16.1103 0.828828 16.3011 0.74981 16.5 0.74981C16.6989 0.74981 16.8897 0.828828 17.0303 0.96948C17.171 1.11013 17.25 1.3009 17.25 1.49981V6.74981C17.25 6.94872 17.171 7.13949 17.0303 7.28014C16.8897 7.42079 16.6989 7.49981 16.5 7.49981C16.3011 7.49981 16.1103 7.42079 15.9697 7.28014C15.829 7.13949 15.75 6.94872 15.75 6.74981ZM12 6.74981V1.49981C12 1.3009 12.079 1.11013 12.2197 0.96948C12.3603 0.828828 12.5511 0.74981 12.75 0.74981C12.9489 0.74981 13.1397 0.828828 13.2803 0.96948C13.421 1.11013 13.5 1.3009 13.5 1.49981V6.74981C13.5 6.94872 13.421 7.13949 13.2803 7.28014C13.1397 7.42079 12.9489 7.49981 12.75 7.49981C12.5511 7.49981 12.3603 7.42079 12.2197 7.28014C12.079 7.13949 12 6.94872 12 6.74981Z"
			fill="currentColor" />
	</symbol>
	<symbol id="address-icon" viewBox="0 0 18 19" fill="none">

		<path
			d="M17.5603 7.93899L10.0603 0.438992C9.77905 0.1579 9.39766 0 9.00001 0C8.60235 0 8.22097 0.1579 7.9397 0.438992L0.439697 7.93899C0.299732 8.07792 0.188783 8.24328 0.1133 8.42547C0.0378174 8.60766 -0.00069249 8.80304 9.42514e-06 9.00024V18.0002C9.42514e-06 18.1992 0.0790272 18.3899 0.219679 18.5306C0.360332 18.6712 0.551097 18.7502 0.750009 18.7502H17.25C17.4489 18.7502 17.6397 18.6712 17.7803 18.5306C17.921 18.3899 18 18.1992 18 18.0002V9.00024C18.0007 8.80304 17.9622 8.60766 17.8867 8.42547C17.8112 8.24328 17.7003 8.07792 17.5603 7.93899ZM16.5 17.2502H1.50001V9.00024L9.00001 1.50024L16.5 9.00024V17.2502Z"
			fill="currentColor" />

	</symbol>
	<symbol id="social-icon_01" viewBox="0 0 20 20" fill="none">
		<path
			d="M14.1239 0.193359C15.5169 0.194849 16.8528 0.748437 17.8378 1.7334C18.8228 2.71842 19.3773 4.05424 19.3788 5.44727V14.124C19.3773 15.5171 18.8228 16.8529 17.8378 17.8379C16.8527 18.8229 15.5169 19.3774 14.1239 19.3789H5.44714C4.05411 19.3774 2.7183 18.8229 1.73328 17.8379C0.748315 16.8529 0.194727 15.517 0.193237 14.124V5.44727L0.199097 5.18652C0.264819 3.8884 0.809838 2.65684 1.73328 1.7334C2.7183 0.748377 4.05411 0.19485 5.44714 0.193359H14.1239ZM5.44714 2.02441C4.53943 2.02442 3.66907 2.38549 3.02722 3.02734C2.38537 3.6692 2.0243 4.53955 2.02429 5.44727V14.124C2.02429 15.0317 2.38543 15.9021 3.02722 16.5439C3.66907 17.1858 4.53943 17.5469 5.44714 17.5469H14.1239C15.0316 17.5469 15.902 17.1858 16.5438 16.5439C17.1857 15.9021 17.5468 15.0317 17.5468 14.124V5.44727C17.5467 4.53955 17.1857 3.6692 16.5438 3.02734C15.902 2.38555 15.0316 2.02441 14.1239 2.02441H5.44714ZM10.0106 5.25977C11.13 5.31643 12.1918 5.78673 12.9882 6.58301C13.8375 7.43239 14.3159 8.58396 14.3173 9.78516V9.78613C14.3172 10.682 14.0512 11.5578 13.5536 12.3027C13.0557 13.0479 12.3474 13.6287 11.5194 13.9717C10.6914 14.3146 9.7802 14.4043 8.90125 14.2295C8.02261 14.0546 7.21546 13.6236 6.58191 12.9902C5.94825 12.3566 5.51654 11.5488 5.34167 10.6699C5.16683 9.79094 5.25653 8.87974 5.59949 8.05176C5.94245 7.22379 6.52329 6.51645 7.26843 6.01855C8.0136 5.52065 8.88981 5.25488 9.78601 5.25488L10.0106 5.25977ZM10.8182 7.29199C10.325 7.08777 9.78222 7.03355 9.25867 7.1377C8.7351 7.24188 8.25431 7.49947 7.87683 7.87695C7.49935 8.25443 7.24176 8.73522 7.13757 9.25879C7.03343 9.78234 7.08765 10.3252 7.29187 10.8184C7.49619 11.3116 7.84208 11.7336 8.28601 12.0303C8.72992 12.3269 9.25214 12.4854 9.78601 12.4854C10.5018 12.4852 11.1881 12.2005 11.6942 11.6943C12.2004 11.1882 12.4851 10.5019 12.4852 9.78613C12.4852 9.25226 12.3267 8.73004 12.0302 8.28613C11.7335 7.8422 11.3115 7.49631 10.8182 7.29199ZM14.4852 3.80859C14.824 3.80859 15.149 3.94311 15.3885 4.18262C15.6281 4.42218 15.7626 4.74714 15.7626 5.08594C15.7625 5.33852 15.6881 5.58588 15.5477 5.7959C15.4074 6.00578 15.2077 6.16898 14.9745 6.26562C14.7411 6.36231 14.484 6.38816 14.2362 6.33887C13.9885 6.28956 13.7605 6.16788 13.5819 5.98926C13.4033 5.81062 13.2816 5.58271 13.2323 5.33496C13.183 5.08719 13.2089 4.83008 13.3055 4.59668C13.4022 4.36335 13.5662 4.16376 13.7762 4.02344C13.9861 3.88327 14.2328 3.80867 14.4852 3.80859Z"
			fill="currentColor" stroke="currentColor" stroke-width="0.385641" />

	</symbol>
	<symbol id="social-icon_02" viewBox="0 0 20 20" fill="none">
		<path
			d="M10.2616 0.205078C12.6316 0.325064 14.8804 1.31994 16.5663 3.00586C18.3643 4.80411 19.376 7.24218 19.3788 9.78516V9.78613C19.3787 11.6833 18.8156 13.5378 17.7616 15.1152C16.7076 16.6927 15.2096 17.9224 13.4569 18.6484C11.7041 19.3745 9.77476 19.5645 7.91394 19.1943C6.05337 18.8242 4.34428 17.9107 3.00281 16.5693C1.66123 15.2278 0.746972 13.5181 0.376831 11.6572C0.00669995 9.79641 0.196677 7.8671 0.922729 6.11426C1.64878 4.36158 2.87855 2.86358 4.45593 1.80957C6.03346 0.755498 7.88873 0.193359 9.78601 0.193359L10.2616 0.205078ZM9.78601 2.02441C7.7888 2.02441 5.86772 2.79409 4.42371 4.17383C2.97989 5.55345 2.12407 7.43674 2.03308 9.43164C1.9422 11.4268 2.6238 13.3804 3.9364 14.8857C5.20259 16.3378 6.96185 17.2625 8.87 17.4893V12.1475H6.89343C6.65067 12.1475 6.41771 12.0514 6.24597 11.8799C6.07421 11.7081 5.97742 11.4744 5.97742 11.2314C5.97754 10.9887 6.07431 10.7556 6.24597 10.584C6.41771 10.4124 6.65066 10.3164 6.89343 10.3164H8.87V8.33984C8.87 7.52165 9.19479 6.73677 9.77332 6.1582C10.3519 5.57963 11.1367 5.25488 11.955 5.25488H13.4012C13.644 5.25495 13.877 5.35081 14.0487 5.52246C14.2204 5.69412 14.3171 5.92717 14.3173 6.16992C14.3173 6.41283 14.2205 6.6466 14.0487 6.81836C13.877 6.98997 13.644 7.08587 13.4012 7.08594H11.955C11.6226 7.08594 11.3033 7.21808 11.0682 7.45312C10.8332 7.68816 10.701 8.00748 10.701 8.33984V10.3164H12.6776C12.9205 10.3164 13.1543 10.4122 13.326 10.584C13.4976 10.7556 13.5935 10.9887 13.5936 11.2314C13.5936 11.4743 13.4978 11.7081 13.326 11.8799C13.1543 12.0516 12.9205 12.1475 12.6776 12.1475H10.701V17.4893C12.6092 17.2626 14.3684 16.3378 15.6346 14.8857C16.9472 13.3804 17.6298 11.4268 17.5389 9.43164C17.448 7.43668 16.5912 5.55346 15.1473 4.17383C13.7034 2.79418 11.7831 2.02451 9.78601 2.02441Z"
			fill="currentColor" stroke="currentColor" stroke-width="0.385641" />


	</symbol>
	<symbol id="search-icon" viewBox="0 0 20 20" fill="none">
		<path
			d="M19.3013 18.2401L14.6073 13.547C15.9678 11.9136 16.6462 9.81853 16.5014 7.69766C16.3566 5.5768 15.3998 3.5934 13.8299 2.16007C12.26 0.726741 10.1979 -0.0461652 8.07263 0.0021347C5.94738 0.0504346 3.92256 0.916222 2.41939 2.41939C0.916222 3.92256 0.0504346 5.94738 0.0021347 8.07263C-0.0461652 10.1979 0.726741 12.26 2.16007 13.8299C3.5934 15.3998 5.5768 16.3566 7.69766 16.5014C9.81853 16.6462 11.9136 15.9678 13.547 14.6073L18.2401 19.3013C18.3098 19.371 18.3925 19.4263 18.4836 19.464C18.5746 19.5017 18.6722 19.5211 18.7707 19.5211C18.8693 19.5211 18.9669 19.5017 19.0579 19.464C19.1489 19.4263 19.2317 19.371 19.3013 19.3013C19.371 19.2317 19.4263 19.1489 19.464 19.0579C19.5017 18.9669 19.5211 18.8693 19.5211 18.7707C19.5211 18.6722 19.5017 18.5746 19.464 18.4836C19.4263 18.3925 19.371 18.3098 19.3013 18.2401ZM1.52072 8.27072C1.52072 6.9357 1.9166 5.63065 2.6583 4.52062C3.4 3.41059 4.45421 2.54543 5.68761 2.03454C6.92101 1.52364 8.27821 1.38997 9.58758 1.65042C10.897 1.91087 12.0997 2.55375 13.0437 3.49775C13.9877 4.44176 14.6306 5.64449 14.891 6.95386C15.1515 8.26323 15.0178 9.62043 14.5069 10.8538C13.996 12.0872 13.1309 13.1414 12.0208 13.8831C10.9108 14.6248 9.60575 15.0207 8.27072 15.0207C6.48112 15.0187 4.76538 14.3069 3.49994 13.0415C2.2345 11.7761 1.52271 10.0603 1.52072 8.27072Z"
			fill="currentColor" />
	</symbol>
	<symbol id="location-icon" viewBox="0 0 21 21" fill="none">
		<path
			d="M20.25 9.75H19.4681C19.2881 7.63073 18.3645 5.64338 16.8606 4.13943C15.3566 2.63549 13.3693 1.71185 11.25 1.53188V0.75C11.25 0.551088 11.171 0.360322 11.0303 0.21967C10.8897 0.0790176 10.6989 0 10.5 0C10.3011 0 10.1103 0.0790176 9.96967 0.21967C9.82902 0.360322 9.75 0.551088 9.75 0.75V1.53188C7.63073 1.71185 5.64338 2.63549 4.13943 4.13943C2.63549 5.64338 1.71185 7.63073 1.53188 9.75H0.75C0.551088 9.75 0.360322 9.82902 0.21967 9.96967C0.0790176 10.1103 0 10.3011 0 10.5C0 10.6989 0.0790176 10.8897 0.21967 11.0303C0.360322 11.171 0.551088 11.25 0.75 11.25H1.53188C1.71185 13.3693 2.63549 15.3566 4.13943 16.8606C5.64338 18.3645 7.63073 19.2881 9.75 19.4681V20.25C9.75 20.4489 9.82902 20.6397 9.96967 20.7803C10.1103 20.921 10.3011 21 10.5 21C10.6989 21 10.8897 20.921 11.0303 20.7803C11.171 20.6397 11.25 20.4489 11.25 20.25V19.4681C13.3693 19.2881 15.3566 18.3645 16.8606 16.8606C18.3645 15.3566 19.2881 13.3693 19.4681 11.25H20.25C20.4489 11.25 20.6397 11.171 20.7803 11.0303C20.921 10.8897 21 10.6989 21 10.5C21 10.3011 20.921 10.1103 20.7803 9.96967C20.6397 9.82902 20.4489 9.75 20.25 9.75ZM11.25 17.9625V17.25C11.25 17.0511 11.171 16.8603 11.0303 16.7197C10.8897 16.579 10.6989 16.5 10.5 16.5C10.3011 16.5 10.1103 16.579 9.96967 16.7197C9.82902 16.8603 9.75 17.0511 9.75 17.25V17.9625C8.02957 17.787 6.42235 17.0233 5.1995 15.8005C3.97666 14.5777 3.21305 12.9704 3.0375 11.25H3.75C3.94891 11.25 4.13968 11.171 4.28033 11.0303C4.42098 10.8897 4.5 10.6989 4.5 10.5C4.5 10.3011 4.42098 10.1103 4.28033 9.96967C4.13968 9.82902 3.94891 9.75 3.75 9.75H3.0375C3.21305 8.02957 3.97666 6.42235 5.1995 5.1995C6.42235 3.97666 8.02957 3.21305 9.75 3.0375V3.75C9.75 3.94891 9.82902 4.13968 9.96967 4.28033C10.1103 4.42098 10.3011 4.5 10.5 4.5C10.6989 4.5 10.8897 4.42098 11.0303 4.28033C11.171 4.13968 11.25 3.94891 11.25 3.75V3.0375C12.9704 3.21305 14.5777 3.97666 15.8005 5.1995C17.0233 6.42235 17.787 8.02957 17.9625 9.75H17.25C17.0511 9.75 16.8603 9.82902 16.7197 9.96967C16.579 10.1103 16.5 10.3011 16.5 10.5C16.5 10.6989 16.579 10.8897 16.7197 11.0303C16.8603 11.171 17.0511 11.25 17.25 11.25H17.9625C17.787 12.9704 17.0233 14.5777 15.8005 15.8005C14.5777 17.0233 12.9704 17.787 11.25 17.9625ZM10.5 6.75C9.75832 6.75 9.0333 6.96993 8.41661 7.38199C7.79993 7.79404 7.31928 8.37971 7.03545 9.06494C6.75162 9.75016 6.67736 10.5042 6.82205 11.2316C6.96675 11.959 7.3239 12.6272 7.84835 13.1517C8.3728 13.6761 9.04098 14.0333 9.76841 14.1779C10.4958 14.3226 11.2498 14.2484 11.9351 13.9645C12.6203 13.6807 13.206 13.2001 13.618 12.5834C14.0301 11.9667 14.25 11.2417 14.25 10.5C14.25 9.50544 13.8549 8.55161 13.1517 7.84835C12.4484 7.14509 11.4946 6.75 10.5 6.75ZM10.5 12.75C10.055 12.75 9.61998 12.618 9.24997 12.3708C8.87996 12.1236 8.59157 11.7722 8.42127 11.361C8.25097 10.9499 8.20642 10.4975 8.29323 10.061C8.38005 9.62459 8.59434 9.22368 8.90901 8.90901C9.22368 8.59434 9.62459 8.38005 10.061 8.29323C10.4975 8.20642 10.9499 8.25097 11.361 8.42127C11.7722 8.59157 12.1236 8.87996 12.3708 9.24997C12.618 9.61998 12.75 10.055 12.75 10.5C12.75 11.0967 12.5129 11.669 12.091 12.091C11.669 12.5129 11.0967 12.75 10.5 12.75Z"
			fill="currentColor" />

	</symbol>



</svg>