<svg xmlns="http://www.w3.org/2000/svg">


	<symbol id="card-icon" viewBox="0 0 24 24" fill="none">

		<path
			d="M8 22C8.55228 22 9 21.5523 9 21C9 20.4477 8.55228 20 8 20C7.44772 20 7 20.4477 7 21C7 21.5523 7.44772 22 8 22Z"
			stroke="currentColor" stroke-width="2" stroke-linecap="round" stroke-linejoin="round" />
		<path
			d="M19 22C19.5523 22 20 21.5523 20 21C20 20.4477 19.5523 20 19 20C18.4477 20 18 20.4477 18 21C18 21.5523 18.4477 22 19 22Z"
			stroke="currentColor" stroke-width="2" stroke-linecap="round" stroke-linejoin="round" />
		<path
			d="M2.04999 2.05005H4.04999L6.70999 14.47C6.80757 14.9249 7.06066 15.3315 7.4257 15.6199C7.79074 15.9083 8.24489 16.0604 8.70999 16.05H18.49C18.9452 16.0493 19.3865 15.8933 19.741 15.6079C20.0956 15.3224 20.3421 14.9246 20.44 14.48L22.09 7.05005H5.11999"
			stroke="currentColor" stroke-width="2" stroke-linecap="round" stroke-linejoin="round" />
	</symbol>
	<symbol id="home-icon" viewBox="0 0 24 24" fill="none">

		<path
			d="M15 21V16C15 15.7348 14.8946 15.4804 14.7071 15.2929C14.5196 15.1054 14.2652 15 14 15H10C9.73478 15 9.48043 15.1054 9.29289 15.2929C9.10536 15.4804 9 15.7348 9 16V21"
			stroke="currentColor" stroke-width="2" stroke-linecap="round" stroke-linejoin="round" />
		<path
			d="M17.774 10.31C17.5655 10.1104 17.2881 9.99904 16.9995 9.99904C16.7109 9.99904 16.4335 10.1104 16.225 10.31C15.76 10.7535 15.1421 11.001 14.4995 11.001C13.8569 11.001 13.239 10.7535 12.774 10.31C12.5656 10.1107 12.2883 9.99952 12 9.99952C11.7117 9.99952 11.4344 10.1107 11.226 10.31C10.761 10.7538 10.1428 11.0014 9.5 11.0014C8.85717 11.0014 8.23904 10.7538 7.774 10.31C7.56553 10.1104 7.28808 9.99904 6.9995 9.99904C6.71091 9.99904 6.43346 10.1104 6.225 10.31C5.77584 10.7386 5.18327 10.9848 4.56262 11.0005C3.94198 11.0163 3.33766 10.8006 2.8673 10.3954C2.39694 9.99015 2.09419 9.42439 2.01798 8.80824C1.94177 8.19209 2.09755 7.56962 2.455 7.062L5.344 2.878C5.5273 2.60751 5.77409 2.38605 6.06278 2.233C6.35146 2.07994 6.67325 1.99994 7 2H17C17.3258 1.99988 17.6467 2.07934 17.9348 2.23149C18.2229 2.38364 18.4694 2.60386 18.653 2.873L21.548 7.065C21.9055 7.57303 22.0611 8.19597 21.9844 8.81244C21.9077 9.42891 21.6043 9.99475 21.1332 10.3997C20.6621 10.8046 20.0571 11.0197 19.4361 11.0029C18.8151 10.9861 18.2226 10.7388 17.774 10.309"
			stroke="currentColor" stroke-width="2" stroke-linecap="round" stroke-linejoin="round" />
		<path
			d="M4 10.95V19C4 19.5304 4.21071 20.0391 4.58579 20.4142C4.96086 20.7892 5.46957 21 6 21H18C18.5304 21 19.0391 20.7892 19.4142 20.4142C19.7893 20.0391 20 19.5304 20 19V10.95"
			stroke="currentColor" stroke-width="2" stroke-linecap="round" stroke-linejoin="round" />
	</symbol>
	<symbol id="swiper-arrow" viewBox="0 0 28 28" fill="none">

		<path
			d="M13.8229 0.199707C14.1982 0.199793 14.5591 0.34592 14.8258 0.606934C15.0927 0.868161 15.2438 1.22391 15.2438 1.59521C15.2436 1.96634 15.0925 2.32141 14.8258 2.58252L3.63145 13.5356L14.8258 24.4897V24.4907C14.9578 24.62 15.0627 24.7735 15.1344 24.9429C15.2061 25.1124 15.2437 25.2943 15.2438 25.478C15.2438 25.6618 15.2061 25.8436 15.1344 26.0132C15.0626 26.1827 14.9579 26.337 14.8258 26.4663C14.6937 26.5955 14.5368 26.6974 14.3648 26.7671C14.1929 26.8368 14.0087 26.8725 13.8229 26.8726C13.6369 26.8726 13.4519 26.8368 13.2799 26.7671C13.1079 26.6973 12.951 26.5955 12.8189 26.4663L0.617775 14.5239C0.485734 14.3948 0.380939 14.2411 0.309181 14.0718C0.237392 13.9023 0.199838 13.7204 0.199806 13.5366C0.199806 13.3529 0.237416 13.171 0.309181 13.0015C0.380987 12.8319 0.485563 12.6776 0.617775 12.5483L12.8189 0.606934C13.0857 0.345843 13.4474 0.199707 13.8229 0.199707ZM26.024 0.199707C26.3994 0.19973 26.7602 0.3459 27.027 0.606934C27.2939 0.868167 27.4449 1.22388 27.4449 1.59521C27.4448 1.96638 27.2938 2.3214 27.027 2.58252L15.8326 13.5356L27.027 24.4897V24.4907C27.159 24.62 27.2638 24.7735 27.3355 24.9429C27.4073 25.1124 27.4449 25.2943 27.4449 25.478C27.4449 25.6618 27.4073 25.8436 27.3355 26.0132C27.2638 26.1827 27.1591 26.337 27.027 26.4663C26.8949 26.5955 26.738 26.6974 26.566 26.7671C26.394 26.8368 26.2099 26.8725 26.024 26.8726C25.8381 26.8726 25.654 26.8368 25.482 26.7671C25.3101 26.6974 25.1531 26.5954 25.0211 26.4663L12.8189 14.5239V14.5229C12.6872 14.3939 12.582 14.2409 12.5104 14.0718C12.4386 13.9023 12.401 13.7204 12.401 13.5366C12.401 13.3529 12.4386 13.1709 12.5104 13.0015C12.5821 12.832 12.6868 12.6776 12.8189 12.5483L25.0211 0.606934C25.2879 0.345935 25.6486 0.199707 26.024 0.199707Z"
			fill="currentColor" stroke="currentColor" stroke-width="0.4" />


</svg>