<svg width="153" height="48" viewBox="0 0 153 48" fill="none" xmlns="http://www.w3.org/2000/svg">
<g clip-path="url(#clip0_2588_1093)">
<path d="M127.271 19.0259C127.355 19.0801 127.437 19.0387 127.516 19.0172C128.229 18.8186 128.886 18.5085 129.462 18.0412C130.109 17.5167 130.688 16.9252 131.168 16.2407C131.478 15.8005 131.746 15.3375 131.92 14.8245C132.014 14.5444 132.08 14.26 132.051 13.9643C132.026 13.6827 131.89 13.5798 131.609 13.6113C131.395 13.6356 131.219 13.7456 131.046 13.8614C130.67 14.1143 130.339 14.4229 130.037 14.7573C128.959 15.9491 128.061 17.2652 127.374 18.72C127.329 18.8157 127.258 18.9072 127.27 19.0259M136.996 22.2825C136.996 22.3068 136.991 22.3312 136.993 22.3554C137.003 22.5969 136.973 22.8684 137.241 22.9942C137.518 23.1242 137.702 22.9185 137.881 22.7569C138.234 22.4355 138.537 22.0696 138.835 21.6967C140.053 20.1705 141.181 18.5785 142.28 16.9637C142.328 16.8937 142.376 16.8209 142.411 16.7437C142.714 16.0263 143.013 15.3061 143.32 14.5887C143.373 14.4644 143.364 14.3616 143.299 14.2457C143.059 13.8171 142.599 13.6427 142.105 13.807C141.809 13.9042 141.558 14.0757 141.326 14.2743C140.952 14.5916 140.613 14.9431 140.311 15.3261C139.04 16.9395 138.072 18.7215 137.368 20.6477C137.176 21.175 137.023 21.7152 136.997 22.2825M152.016 18.1512C151.413 18.8471 150.874 19.476 150.329 20.1004C149.246 21.3437 148.167 22.5897 147.023 23.7787C146.404 24.4217 145.76 25.0349 145.068 25.6007C144.677 25.9222 144.259 26.0766 143.754 26.0051C143.39 25.9551 143.022 25.9407 142.67 25.8379C141.659 25.5421 140.763 24.7504 140.697 23.3129C140.669 22.7269 140.671 22.1439 140.769 21.558C140.623 21.568 140.603 21.6809 140.553 21.7552C139.805 22.8442 139.014 23.8973 138.079 24.8348C137.758 25.1549 137.414 25.4463 137.037 25.6979C136.586 25.998 136.104 26.0922 135.574 25.9394C134.307 25.5736 133.479 24.7776 133.172 23.4843C133.071 23.0671 133.124 22.6327 133.136 22.2054C133.138 22.0882 133.136 21.9711 133.136 21.7896C133.034 21.8867 132.968 21.9481 132.903 22.0125C132.384 22.5297 131.86 23.0414 131.35 23.5687C130.646 24.2932 129.837 24.8791 128.982 25.402C126.658 26.8225 123.962 25.605 122.904 23.7816C122.604 23.2643 122.461 22.7012 122.461 22.1025C122.461 21.8995 122.461 21.6967 122.461 21.4366C122.331 21.5624 122.237 21.6509 122.147 21.741C121.039 22.8612 119.931 23.9816 118.689 24.9562C118.314 25.2506 117.927 25.5293 117.515 25.7679C117.226 25.9365 116.918 26.0251 116.575 26.0151C115.794 25.9894 115.013 25.9566 114.26 25.7164C113.886 25.5964 113.535 25.4292 113.223 25.1862C112.469 24.6047 112.282 23.8245 112.442 22.9313C112.507 22.5698 112.658 22.2339 112.815 21.9024C113.501 20.4505 114.377 19.1144 115.296 17.8054C116.019 16.7766 116.755 15.7577 117.483 14.7316C117.593 14.5773 117.688 14.4144 117.773 14.2343C117.304 14.5473 116.815 14.8088 116.298 15.0102C115.123 15.4675 113.927 15.8448 112.658 15.9191C112.458 15.9306 112.318 16.0077 112.185 16.1463C111.556 16.7951 110.916 17.4339 110.29 18.0855C110.143 18.2385 109.992 18.3041 109.779 18.2999C109.193 18.2871 108.607 18.2956 108.027 18.2956C108.017 18.2741 108.009 18.2641 108.007 18.2527C108.004 18.2412 108.001 18.2242 108.007 18.2184C108.794 17.4053 109.583 16.5922 110.369 15.7848C110.349 15.7491 110.343 15.7177 110.326 15.709C109.431 15.2575 109.083 14.4829 109.03 13.5299C108.96 12.2781 109.328 11.1462 109.957 10.0845C110.156 9.74722 110.392 9.43712 110.659 9.1499C111.199 8.56972 111.848 8.35965 112.617 8.57115C113.307 8.7612 113.888 9.12418 114.317 9.70865C114.396 9.81725 114.464 9.93442 114.52 10.0545C114.672 10.3803 114.662 10.436 114.399 10.6889C113.813 11.2505 113.387 11.9065 113.181 12.6967C113.1 13.0068 113.057 13.3184 113.127 13.6371C113.22 14.0586 113.388 14.1714 113.817 14.1671C114.604 14.16 115.329 13.9285 116.03 13.5999C117.065 13.1154 118.007 12.4881 118.892 11.7707C119.067 11.6279 119.239 11.5692 119.458 11.5977C119.834 11.6436 120.213 11.6693 120.572 11.8021C121.478 12.1365 122.045 12.7667 122.251 13.717C122.311 13.99 122.275 14.2472 122.173 14.5044C121.993 14.9603 121.745 15.3804 121.496 15.8005C120.689 17.1681 119.787 18.4742 118.893 19.7831C118.136 20.8921 117.364 21.991 116.674 23.1428C116.561 23.3314 116.447 23.5201 116.382 23.7316C116.346 23.8487 116.409 23.8973 116.516 23.8716C116.708 23.8245 116.874 23.7187 117.038 23.6101C117.719 23.1557 118.353 22.6369 118.984 22.1182C120.41 20.9464 121.716 19.6432 123.048 18.367C123.16 18.2598 123.203 18.1226 123.26 17.9883C123.963 16.345 124.893 14.8517 126.181 13.597C126.876 12.9182 127.658 12.3652 128.529 11.9294C129.395 11.4963 130.255 11.4778 131.141 11.8493C131.711 12.0879 132.233 12.3923 132.644 12.8611C133.067 13.3426 133.221 13.8927 133.081 14.5259C132.955 15.0917 132.722 15.6134 132.446 16.1177C131.669 17.5324 130.631 18.7143 129.299 19.6331C128.575 20.1333 127.786 20.4677 126.911 20.5891C126.774 20.6077 126.659 20.6277 126.612 20.7978C126.354 21.7238 126.191 22.654 126.406 23.6144C126.538 24.2103 126.741 24.3646 127.351 24.3303C127.764 24.3075 128.133 24.1474 128.473 23.9245C129.139 23.4886 129.767 23.0056 130.308 22.4169C131.466 21.1593 132.693 19.9661 133.876 18.7329C134.03 18.5729 134.15 18.3985 134.244 18.1956C135.133 16.2649 136.318 14.5501 137.952 13.1682C138.513 12.6939 139.109 12.2723 139.782 11.9665C140.485 11.6464 141.22 11.5178 141.993 11.5878C142.752 11.6564 143.318 12.0408 143.768 12.6281C143.84 12.7239 143.911 12.8224 144.014 12.9639C144.065 12.8539 144.102 12.7739 144.138 12.6939C145.153 10.396 146.193 8.10815 147.356 5.88031C147.7 5.22012 148.058 4.56705 148.458 3.93971C148.609 3.70393 148.782 3.48243 148.939 3.2495C149.136 2.95799 149.398 2.91797 149.708 3.02943C150.591 3.34524 151.328 3.86969 151.918 4.59706C151.973 4.6628 152.012 4.73997 152.059 4.81141C152.208 5.03577 152.198 5.2344 152.05 5.48019C149.522 9.65433 147.402 14.0272 145.711 18.6056C145.239 19.8876 144.818 21.1864 144.539 22.5269C144.518 22.6341 144.499 22.7441 144.5 22.8527C144.504 23.0814 144.602 23.1486 144.834 23.0928C145.078 23.0327 145.271 22.8784 145.461 22.7269C146.074 22.2397 146.63 21.6895 147.175 21.1279C148.033 20.2419 148.85 19.3187 149.65 18.3784C149.788 18.2155 149.927 18.1398 150.144 18.1455C150.74 18.1598 151.336 18.1499 152.02 18.1499" fill="#1D1D1D"/>
<path d="M12.661 21.7561C12.8482 21.759 12.9668 21.6917 13.0912 21.6489C15.1747 20.9273 17.131 19.947 18.9802 18.748C21.2336 17.2876 23.3115 15.6184 25.0963 13.6021C25.8908 12.7048 26.611 11.7529 27.1598 10.6798C27.3713 10.2654 27.5399 9.83524 27.6399 9.37939C27.8315 8.51054 27.6385 8.08614 26.8583 7.66172C26.4167 7.42164 25.9494 7.24873 25.4707 7.10583C23.8316 6.61711 22.134 6.53566 20.4463 6.38561C20.3106 6.37274 20.2491 6.43991 20.1877 6.53994C20.0276 6.80002 19.8576 7.05296 19.6989 7.31447C17.8569 10.3525 16.2564 13.5179 14.7716 16.7431C14.0171 18.3821 13.3098 20.0399 12.6596 21.7575M1.2518 15.0654C0.598741 13.9508 0.0657196 12.7876 0.0028431 11.4786C-0.0671785 10.011 0.435834 8.72347 1.3947 7.61599C2.07349 6.83289 2.89516 6.2227 3.79116 5.70969C5.08012 4.97231 6.46484 4.46644 7.87527 4.0306C9.88446 3.4104 11.9423 3.016 14.0286 2.76591C16.1792 2.5087 18.3343 2.38294 20.4977 2.49726C22.1811 2.58729 23.8545 2.76591 25.4521 3.36182C26.118 3.61046 26.7511 3.92055 27.3299 4.33497C28.8031 5.39102 29.5533 6.82002 29.5705 8.63773C29.592 10.8827 29.0218 12.979 27.9986 14.964C26.9855 16.9275 25.6394 18.6394 24.0403 20.1513C20.985 23.0408 17.4468 25.1143 13.4184 26.3361C12.7181 26.5489 12.008 26.7276 11.282 26.8276C11.012 26.8648 10.8762 26.9634 10.8005 27.2521C10.3746 28.8569 10.0045 30.4731 9.82302 32.125C9.733 32.9509 9.73156 33.7826 9.81873 34.6258C9.50578 34.7101 9.20854 34.6329 8.91274 34.5915C8.15393 34.4843 7.43943 34.2528 6.80209 33.8169C5.59028 32.991 5.00725 31.8263 4.97152 30.3744C4.94722 29.3141 5.16586 28.2895 5.42737 27.2707C5.48739 27.0348 5.54313 26.7947 5.62887 26.5675C5.69603 26.3875 5.66887 26.286 5.50025 26.1832C5.13157 25.9588 4.83005 25.6573 4.56568 25.3172C3.97693 24.5598 3.77973 23.6796 3.74114 22.7478C3.734 22.5592 3.76543 22.5377 3.99836 22.5878C4.71716 22.7421 5.44595 22.8021 6.18046 22.8135C6.46055 22.8179 6.77494 22.8922 7.01073 22.7678C7.23793 22.6478 7.26223 22.3148 7.37512 22.0762C9.92734 16.6645 12.9468 11.5301 16.4908 6.70713C16.5551 6.61997 16.6436 6.54994 16.668 6.43848C16.6523 6.36131 16.5908 6.38989 16.5523 6.39275C13.4484 6.63568 10.4589 7.3259 7.65378 8.71347C5.94324 9.55945 4.39849 10.6369 3.10237 12.0502C2.34357 12.8776 1.77481 13.8265 1.37613 14.8754C1.35041 14.944 1.33754 15.0183 1.25037 15.0669" fill="#1D1D1D"/>
<path d="M84.899 13.781C84.8761 13.7767 84.8476 13.781 84.8304 13.7695C83.9173 13.1079 83.0656 12.3792 82.4011 11.4546C82.1068 11.0459 81.8795 10.6015 81.7223 10.1227C81.3965 9.12815 81.4936 8.17499 82.0224 7.26757C82.3982 6.62308 82.9141 6.10863 83.5043 5.66422C84.5274 4.89541 85.6664 4.34237 86.8582 3.89653C88.6015 3.24489 90.4079 2.84334 92.2427 2.55612C94.7492 2.16314 97.2757 2.15027 99.805 2.13884C101.881 2.12883 103.958 2.1274 106.033 2.03452C108.093 1.94163 110.151 1.80302 112.189 1.45006C112.885 1.33002 113.579 1.19283 114.251 0.964192C114.81 0.774133 115.35 0.549778 115.743 0.0810616C115.822 -0.0118242 115.907 -0.0118242 116.004 0.0167561C116.194 0.0739166 116.362 0.172518 116.511 0.302558C116.936 0.674102 117.236 1.12424 117.379 1.67298C117.548 2.31603 117.61 2.97053 117.588 3.63216C117.565 4.26665 117.255 4.73964 116.715 5.06831C116.176 5.39699 115.585 5.58419 114.973 5.70708C113.987 5.90429 112.988 5.95574 111.984 5.95574C110.578 5.95574 109.179 5.85285 107.779 5.73566C105.491 5.54275 103.218 5.23551 100.935 4.99544C100.657 4.96543 100.374 4.95542 100.096 4.91399C99.8879 4.88255 99.765 4.95256 99.6464 5.12691C98.8004 6.36872 98.0087 7.64197 97.2799 8.95666C95.9381 11.3803 94.6749 13.8425 93.5317 16.3675C93.4816 16.4761 93.4059 16.5762 93.4088 16.7033C93.4559 16.7948 93.5388 16.759 93.6045 16.759C95.2651 16.742 96.927 16.7733 98.5846 16.8606C100.548 16.9634 102.507 17.1092 104.465 17.2892C104.622 17.3035 104.745 17.3693 104.852 17.4736C105.222 17.8322 105.455 18.2653 105.568 18.7668C105.607 18.9412 105.555 19.0083 105.372 19.0155C104.799 19.0397 104.226 19.0798 103.653 19.1069C101.787 19.1941 99.9236 19.3213 98.0631 19.4971C96.0825 19.6843 94.1105 19.9443 92.1541 20.3145C91.9012 20.3616 91.764 20.4717 91.6696 20.7174C90.7222 23.1639 89.8177 25.6232 89.2089 28.1797C88.8359 29.7474 88.5258 31.3265 88.4786 32.9469C88.4658 33.41 88.5086 33.8701 88.5187 34.3445C88.2015 34.4116 87.9043 34.3402 87.607 34.2974C86.8739 34.1931 86.1794 33.9701 85.5592 33.5571C84.3531 32.754 83.7415 31.615 83.6872 30.1747C83.6444 29.0414 83.8629 27.9411 84.1588 26.8536C84.5632 25.3689 85.0976 23.9298 85.6921 22.5108C85.7378 22.4023 85.8179 22.3022 85.795 22.1193C83.9444 22.9838 82.1896 23.9285 81.0521 25.7018C80.9291 25.6718 80.8978 25.5689 80.8449 25.4946C80.3376 24.7844 79.9389 24.0185 79.686 23.1825C79.283 21.8593 79.5745 20.6946 80.5491 19.7185C81.3036 18.9627 82.2339 18.4753 83.2241 18.1052C84.3031 17.7022 85.4249 17.4721 86.5595 17.295C87.0296 17.2221 87.4998 17.1478 87.9728 17.1035C88.1957 17.082 88.3086 16.9949 88.4072 16.7977C89.2132 15.1686 90.0878 13.5752 90.9981 12.0005C92.397 9.57971 93.8732 7.20755 95.4951 4.92827C95.5423 4.86254 95.6223 4.80824 95.5966 4.68677C95.0879 4.71963 94.5863 4.80538 94.0861 4.90683C92.3327 5.25981 90.6865 5.88285 89.2217 6.92175C86.9211 8.55511 85.4278 10.7186 84.9733 13.541C84.9633 13.601 84.9475 13.661 84.9318 13.7196C84.9262 13.7424 84.9104 13.7624 84.899 13.7838" fill="#1D1D1D"/>
<path d="M31.8841 20.5536C32.3986 19.9135 32.8787 19.3146 33.3617 18.7174C34.7278 17.0268 36.094 15.3349 37.5902 13.7558C38.036 13.2856 38.4962 12.8313 38.9819 12.404C39.1649 12.2425 39.3621 12.0967 39.5479 11.9381C40.0595 11.5022 40.6267 11.4708 41.227 11.7138C42.1601 12.0896 42.7617 12.7684 43.0303 13.7373C43.1104 14.0287 43.0818 14.296 42.9204 14.5746C41.6328 16.791 40.4582 19.066 39.5179 21.4567C39.1749 22.3298 38.8619 23.2144 38.6833 24.1662C38.7905 24.1662 38.8362 24.0933 38.8877 24.0404C40.6596 22.2213 42.4302 20.3992 44.2051 18.5816C44.3293 18.4544 44.3965 18.3029 44.4665 18.1471C45.4697 15.8993 46.6829 13.7744 48.1791 11.8152C48.322 11.628 48.4649 11.5451 48.6978 11.5808C49.4438 11.6952 50.1425 11.9295 50.7627 12.3696C51.0129 12.5468 51.2414 12.7512 51.3901 13.0256C51.5173 13.2585 51.5173 13.4586 51.3401 13.6957C49.7324 15.8407 48.5321 18.2043 47.5946 20.708C47.3159 21.4511 47.0773 22.207 46.9844 23.0001C46.9616 23.1973 46.963 23.3902 47.0259 23.5789C47.0744 23.7231 47.1731 23.7646 47.3132 23.696C47.4575 23.6246 47.5746 23.516 47.6804 23.3974C49.1223 21.8025 50.5627 20.2078 52.006 18.6145C52.0889 18.523 52.1489 18.4215 52.1918 18.3043C53.3593 15.0676 54.9341 12.0267 56.6602 9.06005C57.6678 7.32809 58.7524 5.64615 60.0185 4.08852C60.2728 3.77556 60.5458 3.48118 60.8444 3.20682C61.1088 2.96531 61.4004 2.90673 61.7218 3.03962C62.5535 3.38259 63.3167 3.83273 63.9311 4.50151C64.2112 4.80731 64.2026 4.8416 63.9425 5.17457C60.7916 9.21724 58.1736 13.58 56.093 18.2629C55.4986 19.6004 54.9583 20.9594 54.6211 22.3913C54.5539 22.6771 54.4954 22.963 54.4697 23.2559C54.4583 23.3745 54.4525 23.493 54.5468 23.626C54.6568 23.5188 54.7511 23.4303 54.8426 23.3374C56.4431 21.6897 58.0436 20.0449 59.6383 18.3929C59.8027 18.2215 59.9656 18.1386 60.2071 18.1458C60.7901 18.1628 61.3731 18.1514 61.9434 18.1514C61.9891 18.2515 61.9306 18.2915 61.8962 18.3343C60.47 20.0863 59.0324 21.8283 57.4606 23.4545C56.7974 24.1405 56.113 24.8021 55.3513 25.378C55.1756 25.5094 54.9926 25.6323 54.8112 25.7553C54.3596 26.0581 53.8822 26.0825 53.3807 25.8867C52.9977 25.7381 52.6619 25.5208 52.3804 25.2265C51.6687 24.482 51.2714 23.6017 51.2701 22.5599V22.0255C51.1172 22.1055 51.0529 22.2098 50.9742 22.2956C50.0525 23.3073 49.1294 24.3162 48.0991 25.2193C47.9433 25.3551 47.7747 25.4794 47.6247 25.6223C47.2832 25.9496 46.8873 26.0553 46.4186 26.0067C45.3669 25.8981 44.4251 25.5623 43.6763 24.7777C43.1247 24.2005 42.8689 23.5402 43.0375 22.7385C43.0818 22.5243 43.1019 22.3056 43.1361 22.0684C42.9875 22.1098 42.9161 22.227 42.8275 22.3141C41.9101 23.2273 41.0112 24.159 40.0509 25.0293C39.7436 25.3079 39.4221 25.5695 39.1048 25.8381C38.9492 25.9695 38.7733 26.0268 38.5647 26.0096C37.9131 25.9581 37.2872 25.8209 36.7171 25.4836C35.7324 24.8992 35.3566 24.0033 35.641 22.8972C35.8453 22.1026 36.1768 21.3553 36.5098 20.6093C37.4015 18.6145 38.4018 16.6753 39.4393 14.7532C39.5222 14.6003 39.635 14.4531 39.6493 14.2431C39.4765 14.3045 39.3892 14.426 39.2878 14.5246C37.8416 15.9307 36.5141 17.4469 35.1651 18.9431C33.6689 20.6036 32.2314 22.3141 30.9566 24.1548C30.5879 24.6863 30.2293 25.2251 29.9135 25.7895C29.8135 25.9666 29.7262 26.0339 29.5147 25.9681C28.7103 25.7195 27.9914 25.3294 27.3498 24.7821C26.8383 24.3448 26.6839 23.8231 26.8383 23.1772C27.0426 22.3199 27.3399 21.4954 27.6571 20.6765C28.9961 17.214 30.5879 13.8673 32.2642 10.5605C33.3131 8.49273 34.372 6.4321 35.5481 4.43291C35.7838 4.03279 36.0211 3.63552 36.3097 3.2697C36.5799 2.92531 36.6784 2.89815 37.0929 3.06392C37.2628 3.13108 37.4273 3.21253 37.5858 3.30399C38.2547 3.68982 38.8691 4.1514 39.4436 4.66584C39.5251 4.73871 39.6008 4.81875 39.6764 4.89876C39.808 5.03739 39.8409 5.16313 39.7151 5.34748C39.3993 5.81191 39.1077 6.29063 38.8134 6.76934C36.1596 11.0778 33.8904 15.5849 31.9512 20.2578C31.9198 20.3321 31.8598 20.4036 31.8883 20.555" fill="#1D1D1D"/>
<path d="M66.5173 24.7844C66.603 24.8086 66.6301 24.7815 66.6531 24.7558C67.8934 23.3525 68.878 21.762 69.9669 20.2473C70.0097 20.1873 70.0354 20.1244 70.0012 20.0444C69.7868 19.5442 69.5768 19.0426 69.3638 18.5411C69.2223 18.5939 69.1838 18.7054 69.1267 18.794C68.5193 19.7085 67.9548 20.6503 67.4447 21.6234C67.1831 22.1208 66.9488 22.6309 66.7888 23.1696C66.633 23.6955 66.5001 24.2271 66.5173 24.7858M70.1441 14.1283C70.5542 13.6181 70.9058 13.1523 71.2344 12.6678C71.6189 12.1033 72.0003 11.5346 72.2819 10.9087C72.6992 9.9784 72.7449 9.02381 72.4577 8.05066C72.3848 7.80201 72.2676 7.5748 72.0746 7.39331C71.7588 7.09608 71.343 7.08893 71.02 7.37617C70.8729 7.50764 70.7572 7.6634 70.6599 7.83488C70.4971 8.12211 70.3684 8.42649 70.2784 8.74373C69.9154 10.0141 69.8411 11.3145 69.9255 12.6249C69.9569 13.1079 69.9898 13.5967 70.1441 14.1283ZM71.1487 22.5579C71.0101 22.6123 70.9615 22.7295 70.89 22.8224C70.3371 23.5526 69.8069 24.2999 69.2138 24.9988C68.9137 25.3531 68.5907 25.6861 68.2135 25.9633C67.4447 26.5293 66.6459 26.5578 65.8713 25.9991C64.8624 25.2674 64.4024 24.2714 64.5123 23.0181C64.6081 21.9321 65.0482 20.9718 65.5698 20.04C66.2057 18.9054 67.0202 17.8994 67.8391 16.8949C67.9848 16.7148 68.1263 16.5304 68.2849 16.3604C68.425 16.2089 68.445 16.0659 68.3778 15.8645C68.0934 15.0071 67.8434 14.1397 67.6661 13.2523C67.4233 12.0319 67.3418 10.8044 67.6305 9.58256C67.8405 8.698 68.2749 7.92347 68.9365 7.289C69.5954 6.65594 70.3942 6.29726 71.2973 6.23867C72.4934 6.1615 73.4794 6.83315 73.9324 7.95491C74.3253 8.93236 74.2696 9.91124 73.9567 10.8944C73.6008 12.009 73.0549 13.0308 72.4191 14.0054C71.9189 14.7713 71.3959 15.5244 70.8671 16.2718C70.7314 16.4647 70.7014 16.6261 70.7901 16.8419C70.9801 17.3036 71.1372 17.7779 71.3687 18.221C71.5016 18.2338 71.5417 18.1281 71.6017 18.0637C72.0433 17.5879 72.5119 17.142 73.0478 16.7748C73.6166 16.3846 74.2454 16.1746 74.9399 16.1889C75.3443 16.1975 75.7073 16.3246 76.0231 16.5776C76.6346 17.0648 77.0419 17.6894 77.2563 18.4396C77.2734 18.4981 77.2906 18.5568 77.2963 18.6168C77.3263 18.8855 77.3606 19.0326 76.9419 18.9983C76.1274 18.9341 75.3385 19.0898 74.5954 19.4499C74.0209 19.7286 73.488 20.0686 72.9964 20.4759C72.7592 20.6731 72.7534 20.6803 72.9278 20.9146C73.6466 21.8907 74.4197 22.818 75.3443 23.6098C75.6516 23.8726 75.663 23.8798 75.5243 24.2614C75.2171 25.1031 74.7127 25.7633 73.8109 26.0291C73.3708 26.1591 73.2679 26.1233 73.0064 25.7504C72.3805 24.8587 71.8718 23.8984 71.3673 22.9353C71.3016 22.8081 71.2545 22.6666 71.1487 22.5608" fill="#E5193A"/>
<path d="M55.3558 5.4744C55.3315 5.90596 55.2544 6.28751 55.1286 6.65906C54.7028 7.91516 54.104 9.08408 53.3424 10.1687C52.9451 10.736 52.8979 10.7446 52.2663 10.4688C51.4718 10.123 50.7072 9.71714 49.9556 9.28843C49.6284 9.10266 49.6284 9.09695 49.7569 8.75398C50.2656 7.39499 50.7716 6.036 51.1631 4.63843C51.3346 4.02681 51.4746 3.40805 51.5518 2.77785C51.5732 2.60637 51.6233 2.53492 51.799 2.57208C53.0808 2.84073 54.1855 3.41519 55.0143 4.45266C55.2587 4.75847 55.3558 5.12286 55.3558 5.47297" fill="#1D1D1D"/>
<path d="M97.734 43.0495V43.4525C97.734 43.9726 97.734 43.9784 98.2456 43.9697C98.6458 43.9627 99.0502 44.0127 99.4475 43.9041C99.9162 43.7754 100.138 43.5053 100.142 43.0467C100.148 42.5937 99.9205 42.315 99.446 42.1935C99.3403 42.1664 99.2316 42.1378 99.123 42.1349C98.7201 42.1263 98.3171 42.1321 97.9155 42.1221C97.7669 42.1178 97.7269 42.1807 97.7311 42.3164C97.7383 42.5608 97.734 42.8037 97.734 43.048M96.5223 41.1089C96.6008 41.0617 96.6881 41.0746 96.7723 41.0746C97.5297 41.0746 98.2871 41.0746 99.0431 41.0746C99.486 41.076 99.9176 41.1346 100.331 41.3076C101.034 41.6033 101.395 42.1349 101.42 42.8938C101.427 43.1367 101.424 43.3782 101.358 43.6197C101.194 44.2228 100.809 44.6114 100.229 44.8172C100.126 44.8529 100.019 44.8786 99.8719 44.9215C100.466 45.9162 101.048 46.8907 101.661 47.9167C101.172 47.9167 100.739 47.9124 100.305 47.9196C100.139 47.9225 100.112 47.7938 100.056 47.6924C99.7032 47.0507 99.3531 46.4077 99.0016 45.766C98.9016 45.5845 98.7958 45.4059 98.7058 45.2188C98.6386 45.0801 98.5471 45.0301 98.3929 45.0258C97.734 45.0044 97.7355 44.9987 97.7355 45.6617C97.7355 46.3248 97.7269 47.005 97.7398 47.6767C97.7441 47.8753 97.674 47.9281 97.4883 47.9196C97.2196 47.9082 96.9509 47.911 96.6823 47.9196C96.5422 47.9238 96.4793 47.8739 96.4936 47.7309C96.4994 47.6823 96.4936 47.6338 96.4936 47.5838C96.4936 45.5203 96.4936 43.4567 96.4936 41.3933C96.4936 41.2975 96.4737 41.1975 96.5208 41.106" fill="#1D1D1D"/>
<path d="M85.2398 47.9222H84.2167C83.0806 47.9222 81.9459 47.9222 80.81 47.9222C80.5284 47.9222 80.5242 47.9179 80.5242 47.6507C80.5242 45.55 80.5242 43.4508 80.5242 41.3501C80.5242 41.0857 80.5284 41.0786 80.7756 41.0786C82.1189 41.0757 83.4622 41.0757 84.8054 41.0786C85.0627 41.0786 85.0641 41.0842 85.0684 41.3387C85.0712 41.5345 85.0712 41.7302 85.0684 41.9246C85.0641 42.176 85.0612 42.1818 84.7982 42.1818C83.9195 42.1847 83.0392 42.1818 82.1603 42.1847C81.6973 42.186 81.7617 42.1232 81.7574 42.5947C81.7545 42.9363 81.7673 43.2793 81.7531 43.6194C81.7445 43.8165 81.8159 43.868 82.0032 43.8651C82.8219 43.8566 83.6393 43.8623 84.4582 43.8623C84.5439 43.8623 84.6297 43.868 84.714 43.8623C84.8569 43.8508 84.9083 43.9152 84.9041 44.0552C84.8969 44.2867 84.8955 44.5197 84.9041 44.7512C84.9097 44.9112 84.8469 44.9669 84.6897 44.9655C84.1524 44.9598 83.6151 44.9627 83.0777 44.9627C82.6991 44.9627 82.3204 44.9669 81.9417 44.9598C81.7988 44.9569 81.7516 45.0112 81.7531 45.1513C81.7588 45.64 81.7602 46.1287 81.7531 46.6174C81.7502 46.7774 81.8045 46.8246 81.9617 46.8232C82.7563 46.8161 83.5493 46.8204 84.3425 46.8204C84.5625 46.8204 84.7826 46.8289 85.0012 46.8175C85.1641 46.8103 85.2512 46.8418 85.2427 47.0332C85.2284 47.3119 85.2384 47.5934 85.2384 47.9235" fill="#1D1D1D"/>
<path d="M129.098 44.5742C128.744 43.6354 128.415 42.7594 128.085 41.8834C128.063 41.8877 128.04 41.8919 128.018 41.8962C127.68 42.7793 127.343 43.6639 126.996 44.5728H129.098V44.5742ZM124.676 47.1778C124.62 47.0235 124.696 46.9307 124.738 46.8335C125.636 44.7614 126.538 42.6922 127.429 40.6173C127.521 40.4058 127.635 40.3129 127.864 40.3357C128.105 40.3615 128.381 40.26 128.584 40.3772C128.793 40.4958 128.816 40.7916 128.911 41.0132C129.724 42.8951 130.533 44.7785 131.34 46.6634C131.406 46.8163 131.499 46.9635 131.516 47.1764C131.1 47.1764 130.701 47.1735 130.302 47.1778C130.158 47.1778 130.122 47.075 130.078 46.975C129.93 46.6148 129.772 46.2561 129.637 45.8903C129.568 45.706 129.48 45.6216 129.267 45.626C128.461 45.6388 127.655 45.6374 126.849 45.6274C126.65 45.6245 126.539 45.6773 126.47 45.876C126.348 46.2333 126.186 46.5777 126.059 46.9335C125.996 47.1064 125.911 47.1893 125.718 47.1822C125.366 47.1693 125.014 47.1778 124.674 47.1778" fill="#E5193A"/>
<path d="M48.2957 41.0903H53.4157C53.4157 41.4218 53.4115 41.7376 53.4157 42.0534C53.4186 42.2206 53.2986 42.3164 53.21 42.4279C52.1612 43.7598 51.1079 45.0901 50.0562 46.422C49.969 46.532 49.8875 46.6477 49.7617 46.8178H50.1733C51.1751 46.8178 52.1753 46.8178 53.1757 46.8178C53.4687 46.8178 53.4701 46.8221 53.4715 47.1179C53.473 47.3251 53.4672 47.5338 53.473 47.741C53.4758 47.8596 53.443 47.9296 53.31 47.9196C53.2615 47.9167 53.2129 47.9196 53.1628 47.9196C51.6252 47.9196 50.0876 47.9196 48.5486 47.9196C48.2342 47.9196 48.2613 47.9124 48.2241 47.6038C48.1598 47.0565 48.3485 46.6378 48.6957 46.2148C49.7017 44.9887 50.6635 43.7255 51.6395 42.4764C51.6981 42.4036 51.781 42.3421 51.7967 42.2321C51.7224 42.1421 51.6167 42.1835 51.5294 42.1835C50.552 42.1792 49.576 42.1821 48.6 42.1807C48.297 42.1807 48.2957 42.1763 48.2928 41.8849C48.2899 41.6291 48.2928 41.3733 48.2928 41.0917" fill="#1D1D1D"/>
<path d="M65.6844 46.8169C66.829 46.8169 67.9007 46.814 68.9739 46.8169C69.4427 46.8183 69.3898 46.7483 69.3855 47.2141C69.3826 47.4413 69.4898 47.73 69.3326 47.8771C69.1941 48.0072 68.9139 47.9158 68.6968 47.9158C67.2805 47.9187 65.8658 47.9172 64.4497 47.9172C64.1796 47.9172 64.1939 47.9501 64.161 47.6428C64.0996 47.0741 64.2796 46.6311 64.6455 46.1866C65.6229 45.002 66.5518 43.7745 67.5007 42.5655C67.5835 42.4612 67.6621 42.354 67.745 42.2455C67.6735 42.1354 67.5678 42.1812 67.4806 42.1812C66.5046 42.1769 65.5271 42.1797 64.5511 42.1783C64.2382 42.1783 64.2368 42.1754 64.2339 41.8582C64.2325 41.6753 64.2467 41.491 64.2296 41.3095C64.2096 41.1037 64.304 41.0693 64.484 41.0693C66.0216 41.0751 67.5592 41.0751 69.0968 41.0693C69.2812 41.0693 69.3483 41.1179 69.3526 41.3137C69.3712 42.1212 69.3783 42.1212 68.8696 42.7656C67.8936 44.0003 66.919 45.2363 65.943 46.4711C65.8702 46.564 65.8001 46.6611 65.6844 46.8155" fill="#1D1D1D"/>
<path d="M21.1791 43.0452H21.1776C21.1776 43.1424 21.1704 43.241 21.1791 43.3381C21.2004 43.5654 21.0733 43.854 21.2434 44.0055C21.4063 44.1513 21.6892 44.0512 21.9193 44.0527C22.2479 44.0555 22.5795 44.0655 22.8967 43.9527C23.1653 43.8583 23.3598 43.6926 23.4511 43.4139C23.6284 42.8666 23.3712 42.3793 22.8081 42.2179C22.3294 42.0821 21.8378 42.1421 21.3519 42.1306C21.2277 42.1278 21.1776 42.1921 21.1791 42.3121C21.1805 42.5565 21.1791 42.8009 21.1791 43.0452ZM19.9701 44.4713C19.9701 43.4583 19.9701 42.4451 19.9701 41.4333C19.9701 41.0946 19.9744 41.0917 20.3145 41.0903C21.059 41.0903 21.8036 41.0903 22.5466 41.0932C22.9925 41.0961 23.4184 41.189 23.8184 41.3904C24.4173 41.6933 24.7201 42.1893 24.7631 42.8509C24.773 43.008 24.7702 43.1682 24.7631 43.3267C24.7259 44.1199 24.3 44.6757 23.5413 44.9287C23.1554 45.0573 22.7553 45.0959 22.3523 45.1159C22.1337 45.1273 21.9135 45.1188 21.6935 45.1216C21.1104 45.1273 21.1805 45.0588 21.1776 45.6203C21.1747 46.2791 21.1776 46.9379 21.1776 47.5966C21.1776 47.921 21.1733 47.9239 20.8618 47.9268C20.6418 47.9296 20.4231 47.9196 20.2031 47.9296C20.0273 47.9368 19.9573 47.8653 19.9701 47.6938C19.9773 47.6094 19.9701 47.5223 19.9701 47.438V44.4728V44.4713Z" fill="#E5193A"/>
<path d="M35.8998 44.5098C35.8998 43.4596 35.8998 42.4093 35.8998 41.3589C35.8998 41.0816 35.9041 41.0803 36.1813 41.076C36.4371 41.0731 36.6944 41.0803 36.9501 41.0731C37.0915 41.0702 37.1516 41.126 37.1387 41.2674C37.1316 41.3403 37.1387 41.4146 37.1387 41.4875V47.5337C37.1387 47.5709 37.1387 47.6065 37.1387 47.6437C37.1459 47.9353 37.1387 47.9223 36.8572 47.921C36.6257 47.9195 36.3928 47.9238 36.1613 47.921C35.9055 47.9181 35.9012 47.9152 35.8998 47.6609C35.8983 46.6105 35.8998 45.5602 35.8998 44.5098Z" fill="#1D1D1D"/>
<path d="M113.829 44.5062C113.829 45.5551 113.829 46.6026 113.829 47.6514C113.829 47.9301 113.825 47.9215 113.578 47.9202C113.334 47.9173 113.089 47.9058 112.846 47.9244C112.643 47.9401 112.606 47.8544 112.608 47.6743C112.615 46.4068 112.61 45.1393 112.61 43.8703C112.61 43.0415 112.61 42.2127 112.61 41.3838C112.61 41.0466 112.592 41.0751 112.932 41.0751C113.151 41.0751 113.371 41.088 113.589 41.0708C113.792 41.0565 113.832 41.1466 113.831 41.3266C113.825 42.387 113.828 43.4473 113.828 44.509" fill="#1D1D1D"/>
</g>
<defs>
<clipPath id="clip0_2588_1093">
<rect width="152.192" height="48" fill="white"/>
</clipPath>
</defs>
</svg>
